<svg width="380" height="47" viewBox="0 0 380 47" fill="none" xmlns="http://www.w3.org/2000/svg">
<path d="M18.608 18.3523C18.6932 17.4148 18.4659 16.6809 17.9261 16.1506C17.3864 15.6108 16.4773 15.3409 15.1989 15.3409C14.3845 15.3409 13.7026 15.4356 13.1534 15.625C12.6136 15.8144 12.1922 16.0748 11.8892 16.4063C11.5956 16.7377 11.411 17.1212 11.3352 17.5568C11.25 17.8977 11.2547 18.2102 11.3494 18.4943C11.4536 18.769 11.6477 19.0199 11.9318 19.2472C12.2254 19.4745 12.6089 19.6781 13.0824 19.858C13.5653 20.0379 14.1383 20.1989 14.8011 20.3409L17.0739 20.8523C18.6269 21.1932 19.929 21.643 20.9801 22.2017C22.0407 22.751 22.8741 23.4044 23.4801 24.162C24.0862 24.9195 24.4839 25.7671 24.6733 26.7046C24.8722 27.6421 24.8769 28.6648 24.6875 29.7727C24.3655 31.6856 23.6222 33.3049 22.4574 34.6307C21.2926 35.9565 19.7727 36.965 17.8977 37.6563C16.0227 38.3476 13.8542 38.6932 11.392 38.6932C8.8731 38.6932 6.73295 38.3192 4.97159 37.571C3.21969 36.8135 1.95075 35.6582 1.16477 34.1051C0.388254 32.5426 0.19886 30.5493 0.596588 28.125H8.09659C7.98295 29.0152 8.07765 29.7633 8.38068 30.3693C8.68371 30.9754 9.1714 31.4347 9.84375 31.7472C10.5161 32.0597 11.3542 32.2159 12.358 32.2159C13.2102 32.2159 13.9394 32.1118 14.5455 31.9034C15.1515 31.6951 15.6297 31.4063 15.9801 31.037C16.3305 30.6676 16.5436 30.2462 16.6193 29.7727C16.6951 29.3371 16.6193 28.9489 16.392 28.608C16.1648 28.2671 15.7528 27.9593 15.1562 27.6847C14.5597 27.4101 13.7405 27.1591 12.6989 26.9318L9.91477 26.3068C7.44318 25.7387 5.57765 24.8012 4.31818 23.4943C3.05871 22.1875 2.61363 20.3977 2.98295 18.125C3.28598 16.269 4.04829 14.6496 5.26988 13.2671C6.50094 11.875 8.06344 10.7955 9.95738 10.0284C11.8608 9.25191 13.9678 8.86366 16.2784 8.86366C18.6269 8.86366 20.5919 9.25665 22.1733 10.0426C23.7642 10.8286 24.9053 11.9318 25.5966 13.3523C26.2973 14.7727 26.4867 16.4394 26.1648 18.3523H18.608ZM14.6875 2.00272e-05L16.9602 3.12502L20.2557 2.00272e-05H26.733L26.7045 0.170475L19.1193 6.64775H13.6648L8.18182 0.170475L8.21022 2.00272e-05H14.6875ZM25.0781 46.5341L30.1065 16.5341H37.8906L37.2656 20.3409H37.4361C37.8338 19.6023 38.3546 18.9252 38.9986 18.3097C39.652 17.6847 40.419 17.1875 41.2997 16.8182C42.1899 16.4394 43.1747 16.25 44.2543 16.25C45.6937 16.25 46.9957 16.6335 48.1605 17.4006C49.3253 18.1676 50.1823 19.375 50.7315 21.0227C51.2808 22.6705 51.3376 24.8106 50.902 27.4432C50.4853 29.9621 49.7419 32.0502 48.6719 33.7074C47.6113 35.3646 46.3613 36.6004 44.9219 37.4148C43.4919 38.2292 42.0005 38.6364 40.4474 38.6364C39.4247 38.6364 38.5393 38.4707 37.7912 38.1392C37.0431 37.7983 36.4418 37.339 35.9872 36.7614C35.5327 36.1743 35.2202 35.5114 35.0497 34.7727H34.8793L32.9474 46.5341H25.0781ZM35.9588 27.4432C35.7883 28.5038 35.7741 29.4224 35.9162 30.1989C36.0677 30.9659 36.366 31.5625 36.8111 31.9887C37.2656 32.4053 37.8527 32.6137 38.5724 32.6137C39.2921 32.6137 39.9361 32.4101 40.5043 32.0029C41.0724 31.5862 41.5554 30.9943 41.9531 30.2273C42.3508 29.4508 42.6444 28.5227 42.8338 27.4432C43.0043 26.3637 43.0185 25.4404 42.8764 24.6733C42.7344 23.8968 42.4455 23.3049 42.0099 22.8977C41.5743 22.4811 40.9967 22.2727 40.277 22.2727C39.5573 22.2727 38.8991 22.4811 38.3026 22.8977C37.7154 23.3049 37.2183 23.8968 36.8111 24.6733C36.4133 25.4404 36.1293 26.3637 35.9588 27.4432ZM62.816 38.75C60.4486 38.75 58.4979 38.2813 56.9638 37.3438C55.4392 36.3968 54.3691 35.0805 53.7535 33.3949C53.138 31.6998 53.0149 29.7349 53.3842 27.5C53.7535 25.2652 54.5253 23.3049 55.6996 21.6193C56.8738 19.9243 58.3842 18.608 60.2308 17.6705C62.0774 16.7235 64.1892 16.25 66.566 16.25C68.924 16.25 70.8653 16.7235 72.3899 17.6705C73.924 18.608 74.9988 19.9243 75.6143 21.6193C76.2393 23.3049 76.3672 25.2652 75.9979 27.5C75.6285 29.7349 74.852 31.6998 73.6683 33.3949C72.4846 35.0805 70.9695 36.3968 69.1229 37.3438C67.2857 38.2813 65.1835 38.75 62.816 38.75ZM63.782 32.9546C64.4638 32.9546 65.084 32.732 65.6428 32.287C66.2109 31.8419 66.6939 31.2074 67.0916 30.3835C67.4988 29.5597 67.7971 28.5796 67.9865 27.4432C68.1759 26.2974 68.2043 25.3173 68.0717 24.5029C67.9392 23.679 67.6645 23.0445 67.2479 22.5995C66.8312 22.1544 66.282 21.9318 65.6001 21.9318C64.9183 21.9318 64.2933 22.1544 63.7251 22.5995C63.157 23.0445 62.674 23.679 62.2763 24.5029C61.8785 25.3173 61.585 26.2974 61.3956 27.4432C61.2062 28.5796 61.1731 29.5597 61.2962 30.3835C61.4287 31.2074 61.7034 31.8419 62.12 32.287C62.5462 32.732 63.1001 32.9546 63.782 32.9546ZM77.3615 38.3523L80.9979 16.5341H88.6115L87.9297 20.6818H88.157C88.8104 19.1477 89.6295 18.0256 90.6143 17.3154C91.5992 16.6051 92.674 16.25 93.8388 16.25C94.1797 16.25 94.5064 16.2784 94.8189 16.3352C95.1409 16.3826 95.4581 16.4489 95.7706 16.5341L94.6342 23.2387C94.2649 23.0966 93.8056 22.9972 93.2564 22.9404C92.7071 22.8741 92.2195 22.8409 91.7933 22.8409C91.0357 22.8409 90.3255 23.0161 89.6626 23.3665C89.0092 23.7074 88.4505 24.1904 87.9865 24.8154C87.532 25.4309 87.2289 26.1553 87.0774 26.9887L85.2024 38.3523H77.3615ZM112.251 16.5341L111.286 22.2159H96.9105L97.8764 16.5341H112.251ZM101.513 11.3068H109.354L106.03 31.3352C105.982 31.6383 105.992 31.894 106.058 32.1023C106.125 32.3012 106.257 32.4527 106.456 32.5568C106.664 32.6515 106.939 32.6989 107.28 32.6989C107.507 32.6989 107.786 32.6705 108.118 32.6137C108.449 32.5474 108.7 32.5 108.871 32.4716L109.098 37.983C108.7 38.0966 108.165 38.2245 107.493 38.3665C106.83 38.518 106.058 38.6174 105.178 38.6648C103.34 38.75 101.844 38.5559 100.689 38.0824C99.5431 37.6089 98.7476 36.8703 98.3026 35.8665C97.8669 34.8532 97.7912 33.589 98.0753 32.0739L101.513 11.3068ZM122.035 38.75C119.667 38.75 117.717 38.2813 116.183 37.3438C114.658 36.3968 113.588 35.0805 112.972 33.3949C112.357 31.6998 112.234 29.7349 112.603 27.5C112.972 25.2652 113.744 23.3049 114.918 21.6193C116.093 19.9243 117.603 18.608 119.45 17.6705C121.296 16.7235 123.408 16.25 125.785 16.25C128.143 16.25 130.084 16.7235 131.609 17.6705C133.143 18.608 134.218 19.9243 134.833 21.6193C135.458 23.3049 135.586 25.2652 135.217 27.5C134.847 29.7349 134.071 31.6998 132.887 33.3949C131.703 35.0805 130.188 36.3968 128.342 37.3438C126.504 38.2813 124.402 38.75 122.035 38.75ZM123.001 32.9546C123.683 32.9546 124.303 32.732 124.862 32.287C125.43 31.8419 125.913 31.2074 126.31 30.3835C126.718 29.5597 127.016 28.5796 127.205 27.4432C127.395 26.2974 127.423 25.3173 127.29 24.5029C127.158 23.679 126.883 23.0445 126.467 22.5995C126.05 22.1544 125.501 21.9318 124.819 21.9318C124.137 21.9318 123.512 22.1544 122.944 22.5995C122.376 23.0445 121.893 23.679 121.495 24.5029C121.097 25.3173 120.804 26.2974 120.614 27.4432C120.425 28.5796 120.392 29.5597 120.515 30.3835C120.647 31.2074 120.922 31.8419 121.339 32.287C121.765 32.732 122.319 32.9546 123.001 32.9546ZM161.541 16.5341L150.575 38.3523H141.484L137.791 16.5341H145.746L146.882 30.9659H147.109L153.018 16.5341H161.541ZM169.869 38.75C167.539 38.75 165.607 38.3049 164.073 37.4148C162.539 36.5152 161.46 35.2273 160.835 33.5512C160.21 31.8656 160.096 29.8485 160.494 27.5C160.872 25.2462 161.654 23.2765 162.837 21.5909C164.031 19.9053 165.531 18.5938 167.34 17.6563C169.158 16.7188 171.194 16.25 173.448 16.25C175.096 16.25 176.54 16.5057 177.781 17.0171C179.031 17.5284 180.049 18.2718 180.835 19.2472C181.621 20.2226 182.151 21.4015 182.425 22.7841C182.71 24.1572 182.71 25.7102 182.425 27.4432L182.141 29.2614H162.653L163.335 24.9432H175.607C175.702 24.3182 175.64 23.769 175.423 23.2955C175.214 22.8125 174.878 22.4385 174.414 22.1733C173.96 21.8987 173.41 21.7614 172.766 21.7614C172.122 21.7614 171.516 21.8987 170.948 22.1733C170.389 22.4479 169.911 22.8315 169.513 23.3239C169.125 23.8163 168.865 24.394 168.732 25.0568L167.88 29.6023C167.766 30.3031 167.809 30.9281 168.008 31.4773C168.207 32.0265 168.552 32.4574 169.045 32.7699C169.537 33.0824 170.172 33.2387 170.948 33.2387C171.478 33.2387 171.98 33.1676 172.454 33.0256C172.937 32.8741 173.363 32.6563 173.732 32.3722C174.111 32.0786 174.414 31.7235 174.641 31.3068H181.8C181.289 32.822 180.479 34.1383 179.371 35.2557C178.273 36.3637 176.919 37.2254 175.309 37.8409C173.709 38.447 171.895 38.75 169.869 38.75ZM171.062 13.8068L174.869 7.4432H181.573L176.232 13.8068H171.062ZM191.662 38.3523L196.491 9.26138H209.048C211.207 9.26138 213.026 9.68752 214.503 10.5398C215.98 11.3921 217.041 12.59 217.685 14.1335C218.329 15.6771 218.48 17.4811 218.139 19.5455C217.798 21.6477 217.041 23.4612 215.866 24.9858C214.702 26.501 213.215 27.6705 211.406 28.4943C209.607 29.3087 207.59 29.7159 205.355 29.7159H197.855L198.878 23.5796H204.787C205.734 23.5796 206.567 23.4186 207.287 23.0966C208.007 22.7652 208.589 22.3012 209.034 21.7046C209.479 21.0985 209.768 20.3788 209.901 19.5455C210.033 18.7121 209.972 18.0019 209.716 17.4148C209.47 16.8182 209.044 16.3637 208.437 16.0512C207.841 15.7292 207.079 15.5682 206.151 15.5682H203.366L199.56 38.3523H191.662ZM228.011 38.75C225.644 38.75 223.693 38.2813 222.159 37.3438C220.634 36.3968 219.564 35.0805 218.949 33.3949C218.333 31.6998 218.21 29.7349 218.58 27.5C218.949 25.2652 219.721 23.3049 220.895 21.6193C222.069 19.9243 223.58 18.608 225.426 17.6705C227.273 16.7235 229.384 16.25 231.761 16.25C234.119 16.25 236.061 16.7235 237.585 17.6705C239.119 18.608 240.194 19.9243 240.81 21.6193C241.435 23.3049 241.562 25.2652 241.193 27.5C240.824 29.7349 240.047 31.6998 238.864 33.3949C237.68 35.0805 236.165 36.3968 234.318 37.3438C232.481 38.2813 230.379 38.75 228.011 38.75ZM228.977 32.9546C229.659 32.9546 230.279 32.732 230.838 32.287C231.406 31.8419 231.889 31.2074 232.287 30.3835C232.694 29.5597 232.992 28.5796 233.182 27.4432C233.371 26.2974 233.4 25.3173 233.267 24.5029C233.134 23.679 232.86 23.0445 232.443 22.5995C232.027 22.1544 231.477 21.9318 230.795 21.9318C230.114 21.9318 229.489 22.1544 228.92 22.5995C228.352 23.0445 227.869 23.679 227.472 24.5029C227.074 25.3173 226.78 26.2974 226.591 27.4432C226.402 28.5796 226.368 29.5597 226.491 30.3835C226.624 31.2074 226.899 31.8419 227.315 32.287C227.741 32.732 228.295 32.9546 228.977 32.9546ZM242.614 38.3523L246.25 16.5341H253.693L253.011 20.6818H253.239C253.911 19.3182 254.863 18.2387 256.094 17.4432C257.325 16.6477 258.703 16.25 260.227 16.25C261.752 16.25 263.002 16.6572 263.977 17.4716C264.953 18.2765 265.445 19.3466 265.455 20.6818H265.682C266.269 19.3466 267.23 18.2765 268.565 17.4716C269.901 16.6572 271.383 16.25 273.011 16.25C275.085 16.25 276.662 16.9224 277.741 18.2671C278.83 19.6118 279.186 21.4015 278.807 23.6364L276.364 38.3523H268.523L270.682 25.625C270.814 24.6686 270.682 23.9205 270.284 23.3807C269.886 22.8315 269.28 22.5568 268.466 22.5568C267.661 22.5568 266.979 22.8315 266.42 23.3807C265.871 23.9205 265.53 24.6686 265.398 25.625L263.239 38.3523H255.739L257.898 25.625C258.03 24.6686 257.898 23.9205 257.5 23.3807C257.102 22.8315 256.496 22.5568 255.682 22.5568C255.152 22.5568 254.669 22.6799 254.233 22.9262C253.807 23.1724 253.452 23.5275 253.168 23.9915C252.893 24.446 252.708 24.9906 252.614 25.625L250.455 38.3523H242.614ZM290.629 38.75C288.261 38.75 286.31 38.2813 284.776 37.3438C283.252 36.3968 282.182 35.0805 281.566 33.3949C280.951 31.6998 280.827 29.7349 281.197 27.5C281.566 25.2652 282.338 23.3049 283.512 21.6193C284.686 19.9243 286.197 18.608 288.043 17.6705C289.89 16.7235 292.002 16.25 294.379 16.25C296.737 16.25 298.678 16.7235 300.202 17.6705C301.737 18.608 302.811 19.9243 303.427 21.6193C304.052 23.3049 304.18 25.2652 303.81 27.5C303.441 29.7349 302.665 31.6998 301.481 33.3949C300.297 35.0805 298.782 36.3968 296.935 37.3438C295.098 38.2813 292.996 38.75 290.629 38.75ZM291.594 32.9546C292.276 32.9546 292.897 32.732 293.455 32.287C294.023 31.8419 294.506 31.2074 294.904 30.3835C295.311 29.5597 295.61 28.5796 295.799 27.4432C295.988 26.2974 296.017 25.3173 295.884 24.5029C295.752 23.679 295.477 23.0445 295.06 22.5995C294.644 22.1544 294.094 21.9318 293.413 21.9318C292.731 21.9318 292.106 22.1544 291.538 22.5995C290.969 23.0445 290.487 23.679 290.089 24.5029C289.691 25.3173 289.397 26.2974 289.208 27.4432C289.019 28.5796 288.986 29.5597 289.109 30.3835C289.241 31.2074 289.516 31.8419 289.933 32.287C290.359 32.732 290.913 32.9546 291.594 32.9546ZM297.504 13.9205L295.231 10.7955L291.935 13.9205H285.458L285.487 13.75L293.072 7.27275H298.526L304.009 13.75L303.981 13.9205H297.504ZM315.629 38.75C313.261 38.75 311.31 38.2813 309.776 37.3438C308.242 36.3968 307.167 35.0805 306.552 33.3949C305.936 31.6998 305.818 29.7349 306.197 27.5C306.557 25.2652 307.324 23.3049 308.498 21.6193C309.682 19.9243 311.197 18.608 313.043 17.6705C314.899 16.7235 317.011 16.25 319.379 16.25C321.519 16.25 323.304 16.6383 324.734 17.4148C326.173 18.1818 327.201 19.2709 327.816 20.6818C328.441 22.0834 328.602 23.7311 328.299 25.625H321.026C321.112 24.4887 320.927 23.6174 320.472 23.0114C320.027 22.4053 319.379 22.1023 318.526 22.1023C317.826 22.1023 317.182 22.3012 316.594 22.6989C316.017 23.0871 315.52 23.679 315.103 24.4745C314.696 25.2604 314.397 26.25 314.208 27.4432C314.019 28.6364 313.995 29.6307 314.137 30.4262C314.289 31.2121 314.582 31.804 315.018 32.2017C315.463 32.59 316.026 32.7841 316.708 32.7841C317.295 32.7841 317.835 32.6515 318.327 32.3864C318.829 32.1118 319.26 31.714 319.62 31.1932C319.989 30.6629 320.269 30.019 320.458 29.2614H327.731C327.371 31.1932 326.647 32.8693 325.558 34.2898C324.469 35.7102 323.081 36.8087 321.396 37.5852C319.71 38.3618 317.788 38.75 315.629 38.75ZM337.33 33.1818L338.92 23.8637H339.943L346.477 16.5341H355.284L344.545 27.9546H342.33L337.33 33.1818ZM329.432 38.3523L334.261 9.26138H342.102L337.273 38.3523H329.432ZM342.898 38.3523L339.318 29.7159L345.398 24.1477L351.875 38.3523H342.898ZM357.713 46.5341C356.804 46.5341 355.956 46.4631 355.17 46.321C354.384 46.1885 353.698 46.0038 353.111 45.7671L355.753 40.1989C356.359 40.4262 356.918 40.5729 357.429 40.6392C357.95 40.7055 358.409 40.6676 358.807 40.5256C359.205 40.3835 359.531 40.1137 359.787 39.7159L360.043 39.3182L356.151 16.5341H364.048L365.043 31.6477H365.27L371.378 16.5341H379.901L368.026 40.1705C367.42 41.3731 366.662 42.4527 365.753 43.4091C364.853 44.375 363.745 45.1373 362.429 45.696C361.113 46.2548 359.541 46.5341 357.713 46.5341Z" fill="white"/>
</svg>
